# xmcd
# 
# Track frame offsets:
#     187
#     27324
#     44609
#     61184
#     79124
#     96644
#     113327
#     130584
#     150864
#     162262
#     182394
#     203849
#     220762
#     233234
#     240834
# 
# Disc length: 3622
# 
# Revision: 0
# Processed by: cddbd v1.5.2PL0 Copyright (c) Steve Scherf et al.
# Submitted via: BonkEnc v1.0.8
# 
DISCID=b20e240f
DTITLE=Ben Sidran - Life's A Lesson
DYEAR=1993
DGENRE=Vocal
TTITLE0=Eliyahu
TTITLE1=Oseh Shalom
TTITLE2=Life's A Lesson
TTITLE3=Ani Ma'amin
TTITLE4=Avinu Malchenu
TTITLE5=Tree Of Life
TTITLE6=B'Rosh Hashana
TTITLE7=Eli Eli
TTITLE8=Shofar Shogood
TTITLE9=Y'Did Nefesh
TTITLE10=Kol Nidre
TTITLE11=Hashivenu
TTITLE12=Hatikva
TTITLE13=Face Your Fears
TTITLE14=Hine Ma Tov
EXTD=
EXTT0=
EXTT1=
EXTT2=
EXTT3=
EXTT4=
EXTT5=
EXTT6=
EXTT7=
EXTT8=
EXTT9=
EXTT10=
EXTT11=
EXTT12=
EXTT13=
EXTT14=
PLAYORDER=
